<svg width="152" height="45" viewBox="0 0 152 45" fill="none" xmlns="http://www.w3.org/2000/svg">
<path d="M1.00004 12.13C1.00004 12.13 46.4212 35.906 76 35.906C105.579 35.906 151 12.13 151 12.13M1.00004 12.13C1.00004 12.13 46.4212 44 76 44C105.579 44 151 12.13 151 12.13M1.00004 12.13C1.00004 12.13 46.4212 27.8121 76 27.8121C105.579 27.8121 151 12.13 151 12.13M151 32.8699C151 32.8699 105.579 9.09395 76 9.09395C46.4212 9.09396 1 32.8699 1 32.8699M151 32.8699C151 32.8699 105.579 0.999997 76 1C46.4212 1 1 32.8699 1 32.8699M151 32.8699C151 32.8699 105.579 17.1879 76 17.1879C46.4212 17.1879 1 32.8699 1 32.8699" stroke="#FFFFE3" stroke-width="1.25"/>
<path d="M1.00004 12.13C1.00004 12.13 46.4212 35.906 76 35.906C105.579 35.906 151 12.13 151 12.13M1.00004 12.13C1.00004 12.13 46.4212 44 76 44C105.579 44 151 12.13 151 12.13M1.00004 12.13C1.00004 12.13 46.4212 27.8121 76 27.8121C105.579 27.8121 151 12.13 151 12.13M151 32.8699C151 32.8699 105.579 9.09395 76 9.09395C46.4212 9.09396 1 32.8699 1 32.8699M151 32.8699C151 32.8699 105.579 0.999997 76 1C46.4212 1 1 32.8699 1 32.8699M151 32.8699C151 32.8699 105.579 17.1879 76 17.1879C46.4212 17.1879 1 32.8699 1 32.8699" stroke="#FFFFE3" stroke-width="1.25"/>
</svg>