<svg width="38" height="38" viewBox="0 0 38 38" fill="none" xmlns="http://www.w3.org/2000/svg">
<path d="M19 0C8.55 0 0 8.55 0 19C0 29.45 8.55 38 19 38C29.45 38 38 29.45 38 19C38 8.55 29.545 0 19 0ZM27.7416 27.455C27.3616 28.0234 26.6966 28.215 26.125 27.835C21.66 25.08 16.055 24.5084 9.40342 26.0284C8.74158 26.2216 8.17 25.745 7.98 25.175C7.79 24.5084 8.265 23.94 8.835 23.75C16.055 22.1334 22.325 22.8 27.265 25.84C27.93 26.125 28.0234 26.8834 27.7416 27.455ZM30.0216 22.23C29.545 22.895 28.69 23.18 28.0234 22.705C22.895 19.57 15.105 18.62 9.12 20.52C8.36158 20.71 7.505 20.33 7.315 19.57C7.125 18.81 7.505 17.9534 8.265 17.7634C15.2 15.675 23.75 16.7216 29.64 20.33C30.2116 20.6166 30.495 21.565 30.0216 22.23ZM30.2116 16.91C24.13 13.3 13.965 12.92 8.17 14.7266C7.22 15.01 6.27 14.44 5.985 13.585C5.7 12.6334 6.27 11.685 7.125 11.3984C13.87 9.40342 24.985 9.78342 32.0166 13.965C32.87 14.44 33.155 15.58 32.68 16.435C32.2066 17.1016 31.065 17.3834 30.2116 16.91Z" fill="#1DB954"/>
</svg>
